<svg width="32" height="24" viewBox="0 0 32 24" fill="none" xmlns="http://www.w3.org/2000/svg">
<g clip-path="url(#clip0_830_1770)">
<path d="M0 9.38717C0 8.06399 1.07265 6.99133 2.39583 6.99133H14.6042C15.9273 6.99133 17 8.06398 17 9.38717V21.6251C17 22.9482 15.9273 24.0209 14.6042 24.0209H2.39583C1.07265 24.0209 0 22.9482 0 21.6251V9.38717Z" fill="#474973"/>
<path d="M8 2.37496C8 1.05178 9.07265 -0.020874 10.3958 -0.020874H29.5625C30.8857 -0.020874 31.9583 1.05178 31.9583 2.37496V21.5833C31.9583 22.9065 30.8857 23.9791 29.5625 23.9791H10.3958C9.07265 23.9791 8 22.9065 8 21.5833V2.37496Z" fill="#C4605E"/>
<path d="M18.72 24H13.68V3.98H28.576V8.096H18.72V12.492H26.756V16.608H18.72V24Z" fill="#474973"/>
</g>
<defs>
<clipPath id="clip0_830_1770">
<rect width="32" height="24" fill="white"/>
</clipPath>
</defs>
</svg>
