<svg xmlns="http://www.w3.org/2000/svg" fill="none" viewBox="0 0 24 24" height="24" width="24"><link xmlns="" type="text/css" rel="stylesheet" id="dark-mode-custom-link"/><link xmlns="" type="text/css" rel="stylesheet" id="dark-mode-general-link"/><style xmlns="" lang="en" type="text/css" id="dark-mode-custom-style"/><style xmlns="" lang="en" type="text/css" id="dark-mode-native-style"/><style xmlns="" lang="en" type="text/css" id="dark-mode-native-sheet"/>
<path fill="#1A1A1A" d="M4.90721 3.27539C4.90721 6.45517 6.88202 8.36303 10.8316 9.36717L15.0156 10.3378C18.7644 11.2081 21.0404 13.3503 21.0404 16.8313C21.0739 18.3375 20.5718 19.8102 19.6681 21.0152C19.6681 17.5342 17.8606 15.6598 13.5428 14.5218L9.42584 13.5846C6.11218 12.8482 3.56836 11.0742 3.56836 7.29195C3.56836 5.85268 4.03696 4.41342 4.90721 3.27539Z"/>
<path fill="#666666" d="M17.0914 15.962C18.8654 17.1 19.6687 18.7066 19.6687 21.0162C18.1625 22.924 15.5852 23.9617 12.5393 23.9617C7.41822 23.9617 3.76984 21.4178 3 17.0331H7.92029C8.55624 19.0414 10.2298 19.9786 12.5059 19.9786C15.217 20.012 17.058 18.5393 17.0914 15.962ZM4.90787 3.24289C6.34714 1.36849 8.82402 0.230469 11.8364 0.230469C17.0914 0.230469 20.1039 3.00859 20.8737 6.89127H16.1208C15.5852 5.35158 14.2798 4.14662 11.9034 4.14662C9.32609 4.18009 7.58558 5.65283 7.48516 7.99582C5.76039 7.04462 4.84092 5.18423 4.90787 3.24289Z"/>
</svg>
